inDegrees=no
num_controls=7
num_derivatives=13
num_iterations=139
num_multipliers=7
num_parameters=0
num_slacks=7
num_states=26
objective=5.785530
objective_accelerations=0.507029
objective_balance=0.039331
objective_effort=0.486827
objective_height=4.633956
objective_ligament=0.118387
solver_duration=1437.181945
status=Solve_Succeeded
success=true
DataType=double
version=3
OpenSimVersion=4.4-2022-07-23-0e9fedc
endheader
time	/jointset/ground_pelvis/pelvis_tilt/value	/jointset/ground_pelvis/pelvis_tx/value	/jointset/ground_pelvis/pelvis_ty/value	/jointset/hip_l/hip_flexion_l/value	/jointset/hip_l/hip_adduction_l/value	/jointset/hip_l/hip_rotation_l/value	/jointset/back/lumbar_extension/value	/jointset/patellofemoral_l/patellar_flexion_l/value	/jointset/knee_l/knee_flexion_l/value	/jointset/knee_l/knee_adduction_l/value	/jointset/knee_l/knee_rotation_l/value	/jointset/ankle_l/ankle_angle_l/value	/jointset/subtalar_l/subtalar_angle_l/value	/jointset/ground_pelvis/pelvis_tilt/speed	/jointset/ground_pelvis/pelvis_tx/speed	/jointset/ground_pelvis/pelvis_ty/speed	/jointset/hip_l/hip_flexion_l/speed	/jointset/hip_l/hip_adduction_l/speed	/jointset/hip_l/hip_rotation_l/speed	/jointset/back/lumbar_extension/speed	/jointset/patellofemoral_l/patellar_flexion_l/speed	/jointset/knee_l/knee_flexion_l/speed	/jointset/knee_l/knee_adduction_l/speed	/jointset/knee_l/knee_rotation_l/speed	/jointset/ankle_l/ankle_angle_l/speed	/jointset/subtalar_l/subtalar_angle_l/speed	/forceset/tau_hip_flexion_l	/forceset/tau_hip_adduction_l	/forceset/tau_hip_rotation_l	/forceset/tau_knee_flexion_l	/forceset/tau_ankle_angle_l	/forceset/tau_subtalar_angle_l	/forceset/tau_lumbar_extension	lambda_cid13_p0	lambda_cid13_p1	lambda_cid13_p2	lambda_cid13_p3	lambda_cid13_p4	lambda_cid13_p5	lambda_cid14_p0	/jointset/ground_pelvis/pelvis_tilt/accel	/jointset/ground_pelvis/pelvis_tx/accel	/jointset/ground_pelvis/pelvis_ty/accel	/jointset/hip_l/hip_flexion_l/accel	/jointset/hip_l/hip_adduction_l/accel	/jointset/hip_l/hip_rotation_l/accel	/jointset/back/lumbar_extension/accel	/jointset/patellofemoral_l/patellar_flexion_l/accel	/jointset/knee_l/knee_flexion_l/accel	/jointset/knee_l/knee_adduction_l/accel	/jointset/knee_l/knee_rotation_l/accel	/jointset/ankle_l/ankle_angle_l/accel	/jointset/subtalar_l/subtalar_angle_l/accel	gamma_cid13_p0	gamma_cid13_p1	gamma_cid13_p2	gamma_cid13_p3	gamma_cid13_p4	gamma_cid13_p5	gamma_cid14_p0
0	-0.03681583665613854	0.05667458474127612	0.9203417160333363	0.3085811930696054	-0.2956385000139176	-0.3015643440370085	-0.3879500408040475	0.2499276582270781	0.249927658227084	-0.1745328356952871	-0.1744908407584902	-0.0008036543073733089	0.0004391012082080069	0	0	0	0	0	0	0	0	0	0	0	0	0	0.06843833877623048	-0.02876233914408634	-0.01923173233446807	-0.2359949821446206	0.1814226194583597	-0.02731964623698474	0.005063895227126704	14.10463688481788	6.577130752924323	1.716148160168376	14.4923998466559	-624.5011398654599	-61.08868982718776	-23.19553844827855	-1.143492727390051	-2.100659974540009	-0.8978861651639221	9.186330616698102	-0.6877531397684754	3.064130442109693	-7.150879632077177	8.759819786773194	8.759819786770178	1.38592429390767	-0.07502779504668729	1.246357729352583	-0.3194588758231577	6.577872065108427e-09	1.308595882299299e-07	4.666655247507948e-08	-1.331208896527248e-08	1.168779695371294e-07	1.164245988285202e-08	4.766006180999117e-09
0.01	-0.03686947870631008	0.05657137414118005	0.9202978197839679	0.3090290402685538	-0.2956730351699401	-0.3014103525887653	-0.3883058611299355	0.2503569198045878	0.2503569198046353	-0.1744669778327792	-0.1744912037749139	-0.0007426491937419992	0.0004225115632038445	-0.01069777432548506	-0.02047835161318216	-0.008743151904358712	0.08909734862774892	-0.006867770077842644	0.0306654517296042	-0.07064700672682608	0.08545978492921839	0.08545978492921309	0.01311242253244872	-5.472502972797669e-05	0.01223440021839276	-0.003264462938724604	0.0642450183632596	-0.0455723754422581	-0.01876339400103018	-0.2345173728158221	0.1761150973132903	-0.009308703654360729	0.009652853560312242	12.98210109965029	-0.8870296044865187	2.721731616881538	12.82668212530476	-627.2971832245777	-76.5022541631381	-23.20045559035714	-1.028331451243917	-1.996860155760833	-0.8570916321076149	8.700618525469295	-0.6804278649697934	3.047826267104903	-6.944052425846062	8.380177305696863	8.380177305697732	1.265055599634621	0.03199057114526034	1.216991937521573	-0.3219464992902311	-1.884923434003395e-08	1.428478858771673e-07	1.080800141081934e-07	1.535397049637891e-08	6.183601873492979e-09	-2.577408098049584e-08	2.161651913992157e-11
0.02	-0.03702918083294801	0.05626829254474167	0.920167579629749	0.3103536972617442	-0.2957750758113784	-0.3009536918774905	-0.3893526397696572	0.2516290031234031	0.2516290031234035	-0.1742717648714516	-0.1744915769559043	-0.0005582979240385062	0.0003748759895338688	-0.02121201529567434	-0.03997419926846113	-0.01726878097009748	0.1753619588417106	-0.0135010970827982	0.06053385260799646	-0.138191662768113	0.1685643482464676	0.1685643482464674	0.02587101973374177	-2.032936209716966e-06	0.02466923121434923	-0.006209185733174479	0.06005169795051439	-0.06238241174041941	-0.0182950556681537	-0.2330397634868193	0.1708075751682669	0.008702238928297372	0.01424181189364276	11.92722265919174	-8.361537960144718	3.727253097594473	11.07307933882907	-629.0684275509857	-91.83036146713506	-23.21489327197469	-1.106786056331079	-1.904159182959209	-0.8543815974399417	8.619782933940597	-0.6408645251912044	2.904720271867391	-6.530409494969478	8.28877546437932	8.288775464378388	1.315159227676227	-0.05354437039740693	1.286443884865466	-0.2555108469683147	-4.427634074517633e-08	1.548361835244047e-07	1.694934757413073e-07	4.402002995803029e-08	-1.045107657901435e-07	-6.319062184384371e-08	-4.722773142719274e-09
0.03	-0.03729295922211118	0.05577489148370925	0.9199529431897984	0.3125271488309372	-0.2959422870357026	-0.300203086969305	-0.3910596246554509	0.2537205673450335	0.2537205673450274	-0.1739508917580352	-0.1744916315419251	-0.0002489885542429515	0.0002992484858721783	-0.0314750917997929	-0.05856934014412652	-0.02564103582449943	0.2588555046518564	-0.01991005889638659	0.08942803895746552	-0.2027412045085659	0.2493659472783268	0.249365947278349	0.03820853439595233	-1.88941739040436e-05	0.03718644122141122	-0.008885351870661267	0.05412755192410351	-0.05322149886595787	-0.01772372292270282	-0.2289551794557624	0.1695809283003155	0.003164677000519588	0.01971954300305052	11.28203024249544	-5.929237358667229	3.437289171477845	10.54565946498282	-630.5595917932809	-85.88469033569737	-23.23823541595969	-0.9757876486393227	-1.816681700626706	-0.8260480995174753	8.143205343060757	-0.63629366765604	2.857885261009809	-6.347610031533308	7.918470766421636	7.918470766425551	1.178829848558055	0.02276615103528245	1.233431437233274	-0.2690690095390461	-6.462538415905902e-08	1.200913168875538e-07	2.274364439421508e-07	6.018884695459472e-08	-1.904484561761689e-07	-1.064155804127393e-07	-1.449587065700665e-08
0.04	-0.03765731221653599	0.05509964098176916	0.9196551040672887	0.3155213488459082	-0.2961726642098076	-0.2991683167087136	-0.3933981816622443	0.2566086712857228	0.2566086712857244	-0.1735094870453642	-0.1744921501100394	0.0001853072913455986	0.0001977794183556741	-0.04132693635143751	-0.07634408744999724	-0.03390931748190447	0.3395116480023555	-0.02613428703851706	0.1173669230878708	-0.2645060869670535	0.3278722920634862	0.3278722920635359	0.04997733958074428	-9.482935195686659e-05	0.04966652637274586	-0.01137749850415581	0.04820340589743055	-0.04406058599148128	-0.01715239017710678	-0.2248705954248404	0.1683542814323408	-0.002372884927252713	0.0251972741122628	10.69998438479561	-3.504142833299277	3.144075869357219	9.92752213147204	-631.1114336339901	-79.8543251455294	-23.26976717198603	-1.024539665836462	-1.740080469000156	-0.8335869580405597	8.052302442011214	-0.6039177908996602	2.713659828054734	-5.973477638576598	7.829724615039337	7.829724615039398	1.201417332192401	-0.06535915846900965	1.279018913720113	-0.2187069461698692	-8.486972524322503e-08	8.43828798530928e-08	2.853078555773806e-07	7.609998884878621e-08	-2.758756996080168e-07	-1.497603001714399e-07	-2.437265286928224e-08
0.05	-0.03811847996239715	0.05425066922484965	0.9192749096463825	0.3193085969036999	-0.2964641805346115	-0.297859259796812	-0.3963402807265553	0.2602705237585304	0.2602705237585475	-0.1729530059960052	-0.1744939706498442	0.0007441023373570809	7.245229796430662e-05	-0.05084582866296028	-0.09332038904453629	-0.04212610547928165	0.4174875145631565	-0.03212201232321136	0.1443008203519304	-0.3234615191527752	0.4041051598458683	0.4041051598459184	0.06123190761447019	-0.0002509205789908153	0.06206926958084052	-0.01364717318708818	0.04178742323748252	-0.0440614615778795	-0.0163723946738435	-0.2206224853972297	0.1633730465381688	0.001229058541282985	0.03091840011003437	9.248639400843267	-4.818097437245192	3.357840159309088	9.610798925434199	-631.7588069955457	-81.72892296292616	-23.3085786575723	-0.9064490079806283	-1.656908422424262	-0.8152614030352363	7.602652538479705	-0.5892019679361387	2.661667784960793	-5.788744997534534	7.461116416052822	7.461116416052748	1.074473158019971	0.01206727622235729	1.217419058785473	-0.2250306468945927	-9.870204326727604e-08	5.401250149394628e-08	3.22024342291056e-07	8.814214263543718e-08	-3.393263450010292e-07	-1.780041963394361e-07	-3.104478058982657e-08
0.06	-0.03867301363019526	0.05323583376843638	0.918812640009013	0.3238620883821705	-0.2968141745263992	-0.2962851812903923	-0.399858367910516	0.2646829146204175	0.264682914620416	-0.1722865799424828	-0.1744967918256696	0.001426228222336675	-7.435815276424931e-05	-0.06000012074133176	-0.1095168273487485	-0.05032436077456801	0.4927603321385564	-0.03782982043517763	0.1703712419911714	-0.3797037108971082	0.4779799698768591	0.4779799698769065	0.07196634041048486	-0.0002949565642993464	0.07433269416619082	-0.01567416457160786	0.03537144057745337	-0.04406233716428428	-0.01559239917071025	-0.2163743753696451	0.1583918116439826	0.004831002009808834	0.03663952610775606	7.853277616279159	-6.140427318430963	3.57130982923418	9.205500000749279	-631.5682255829043	-83.53144128258145	-23.35359181641216	-0.9516196192063446	-1.584107810934684	-0.8298804176223912	7.51169264493099	-0.5479343563540746	2.540964703091179	-5.43082955029901	7.358113064761069	7.358113064760485	1.097390284650094	-0.04294811012377048	1.25115518917134	-0.1701702864873175	-1.122643813730064e-07	2.386688350007619e-08	3.578500953238239e-07	1.000213916596654e-07	-4.018516599503012e-07	-2.056122683562447e-07	-3.758197548966642e-08
0.07000000000000001	-0.03931756514456598	0.05206290837584067	0.9182683130776499	0.3291554899121052	-0.2972197941585603	-0.2944551998893305	-0.4039253123506459	0.2698227819090436	0.2698227819090314	-0.1715152428573891	-0.1745000733339267	0.002230392466692432	-0.0002401341943549334	-0.06884892041382429	-0.1249393876954644	-0.05854874205190447	0.5654823990316166	-0.0432464934862077	0.1954697175873721	-0.433265445118459	0.5496148553848613	0.5496148553848677	0.08220782176420403	-0.0003563909078728291	0.08647598638028738	-0.01744020002439789	0.02899163771879876	-0.04147198577226045	-0.01488195183720921	-0.2128492847560754	0.1550214244517037	0.005683794012519607	0.04227301043295187	6.857737507952793	-6.353732774301041	3.625019830675978	8.766603515131038	-631.5070788993329	-82.98001899496481	-23.40356812700913	-0.8423211976312223	-1.501980476801898	-0.8199555940779387	7.086818295290931	-0.5314371372109926	2.470935373131524	-5.255885556739278	7.009389020187517	7.00938902018162	0.9735757106158208	0.01306466238031525	1.192287635712378	-0.1737378950111718	-1.216416475260701e-07	-4.426967617011891e-08	3.853383539233075e-07	1.026969260526459e-07	-4.454637805493204e-07	-2.349630145647748e-07	-4.74966323687498e-08
